<?xml version="1.0" standalone="no"?>
<!DOCTYPE svg PUBLIC "-//W3C//DTD SVG 20010904//EN"
 "http://www.w3.org/TR/2001/REC-SVG-20010904/DTD/svg10.dtd">
<svg version="1.0" xmlns="http://www.w3.org/2000/svg"
 width="500.000000pt" height="500.000000pt" viewBox="0 0 500.000000 500.000000"
 preserveAspectRatio="xMidYMid meet">

<g transform="translate(0.000000,500.000000) scale(0.100000,-0.100000)"
fill="#000000" stroke="none">
<path d="M2313 4475 c-168 -37 -256 -137 -289 -330 -22 -126 -15 -1603 8
-1685 23 -85 43 -124 84 -169 80 -90 183 -124 374 -125 322 -2 457 107 490
395 13 108 13 1428 1 1535 -21 177 -83 288 -192 341 -35 17 -91 36 -123 42
-81 15 -277 12 -353 -4z m304 -261 c15 -11 37 -38 48 -60 19 -38 20 -59 20
-819 0 -606 -3 -788 -13 -816 -27 -76 -94 -110 -202 -101 -70 5 -106 26 -132
77 -19 36 -21 67 -29 436 -5 222 -5 572 0 792 9 441 10 448 81 495 31 21 44
23 117 20 63 -2 88 -8 110 -24z"/>
<path d="M1124 1591 c-191 -47 -304 -153 -360 -336 -25 -81 -25 -292 -1 -383
49 -185 143 -282 320 -329 93 -26 314 -23 431 6 280 68 410 252 377 535 -20
168 -76 278 -157 308 l-35 12 31 26 32 26 -37 36 c-48 46 -129 86 -213 104
-94 19 -298 17 -388 -5z m249 -286 c9 -8 18 -29 22 -45 5 -24 10 -28 19 -20
28 22 36 -282 10 -369 -17 -59 -57 -107 -95 -116 -35 -9 -83 38 -100 96 -19
69 -16 272 6 347 29 100 94 151 138 107z"/>
<path d="M3615 1591 c-92 -15 -162 -40 -221 -80 -138 -93 -194 -233 -194 -486
0 -359 124 -483 500 -502 270 -13 476 70 495 199 9 63 0 85 -45 108 -62 32
-109 26 -215 -26 -52 -26 -114 -49 -140 -51 -41 -5 -50 -2 -75 22 -41 39 -54
106 -47 251 5 132 24 204 63 248 22 25 29 28 57 19 46 -13 46 -40 -1 -100
l-40 -50 157 -80 c86 -44 165 -79 176 -77 68 7 145 67 181 141 26 52 29 69 29
153 0 82 -4 103 -27 153 -25 54 -32 60 -90 86 -110 50 -218 72 -373 76 -77 2
-163 0 -190 -4z"/>
<path d="M2138 1561 c-86 -3 -158 -8 -161 -11 -2 -3 -7 -43 -11 -89 l-7 -84
30 6 30 6 3 -352 c4 -411 4 -413 93 -457 49 -24 57 -25 307 -28 209 -3 272 -1
340 12 256 51 372 202 372 486 0 216 -83 365 -253 453 -131 68 -229 76 -743
58z m448 -292 c42 -39 56 -86 61 -200 10 -194 -37 -299 -131 -299 -22 0 -23 4
-29 98 -4 53 -10 173 -13 266 l-7 169 47 -5 c30 -4 56 -14 72 -29z"/>
</g>
</svg>
